# xmcd CD database file
#
# Track frame offsets:
#	150
#	14605
#	26167
#	43557
#	53977
#	68117
#	81410
#	97950
#	111127
#	129065
#	142485
#	157370
#
# Disc length: 2318 seconds
#
# Revision: 0
# Processed by: cddbd v1.4PL0 Copyright (c) Steve Scherf et al.
# Submitted via: CDex 1.40Release
#
DISCID=ac090c0c
DTITLE=Fatwall Jack - Gril Next Door
DYEAR=2000
DGENRE=Blues
TTITLE0=Hot Weather
TTITLE1=Chicken, Gravy, and Biscuits
TTITLE2=Hey Jay
TTITLE3=Right Track
TTITLE4=Something Got a Hold on Me
TTITLE5=It's a Man's World
TTITLE6=Don't Punish Me
TTITLE7=Taint What You Say, It's What You Do!
TTITLE8=Girl Next Door
TTITLE9=Clock Runs Out
TTITLE10=Fannie Mae
TTITLE11=Love in the Oven
EXTD=YEAR: 2000 ID3G: 0
EXTT0=
EXTT1=
EXTT2=
EXTT3=
EXTT4=
EXTT5=
EXTT6=
EXTT7=
EXTT8=
EXTT9=
EXTT10=
EXTT11=
PLAYORDER=
